<svg xmlns="http://www.w3.org/2000/svg" viewBox="2410 14 59.921 71.308">
  <defs>
    <style>
      .cls-1 {
        fill: #301506;
        fill-rule: evenodd;
      }

      .cls-2 {
        fill: #fab80a;
      }
    </style>
  </defs>
  <g id="Group_1" data-name="Group 1" transform="translate(2410 14)">
    <path id="Path_1" data-name="Path 1" class="cls-1" d="M48.7-707.34l.259,29.43,6.612,8.168,19.837,10.5,24.374-11.928,5.056-12.057-.519-39.025-18.41-.519-19.188,3.112-17.5,10.113Z" transform="translate(-47.146 728.609)"/>
    <path id="Path_2" data-name="Path 2" class="cls-2" d="M29.958,0C18.4,0,8.325,2.237,0,6.649V41.917c0,7.421,2.788,13.627,8.062,17.95,4.9,4.017,20.041,10.636,21.9,11.44,1.76-.766,17.083-7.488,21.9-11.44,5.271-4.321,8.06-10.528,8.06-17.95V6.649C51.6,2.237,41.517,0,29.957,0ZM47.068,6.829c3.446.045,6.829.258,10.1.562V41.917c0,6.635-2.408,11.994-7.053,15.821-4.15,3.418-16.664,9.024-20.155,10.563C26.42,66.741,13.875,61.063,9.8,57.739c-4.618-3.761-7.048-9.247-7.048-15.821V21.744C16.022,9.574,32.136,6.635,47.066,6.83ZM30.739,22.906a12.593,12.593,0,0,0-7.025,1.855V58.73h5.214V47.755a8.23,8.23,0,0,0,2.346.3c5.784,0,9.108-5.214,9.108-12.827S36.959,22.906,30.74,22.906Zm17.817,0c-3.429.1-7.015,2.584-6.993,6.795.009,2.773.777,4.846,5.075,7.368,2.293,1.346,3.217,2.233,3.257,3.869.044,1.818-1.213,2.915-3.124,2.907a8.314,8.314,0,0,1-4.984-2.122v4.8a11.414,11.414,0,0,0,5.728,1.617c5.151,0,7.451-3.639,7.551-6.973.1-3.039-.742-5.338-5.1-7.9-1.944-1.14-3.479-1.889-3.428-3.787.051-1.852,1.589-2.5,3.065-2.489a6.981,6.981,0,0,1,4.671,2.14V24.6a8.911,8.911,0,0,0-5.719-1.695Zm-43.142.528V39.819c0,5.524,2.613,8.32,7.77,8.32a13.851,13.851,0,0,0,7.854-2.092V23.433h-5.2V43.08a4.375,4.375,0,0,1-2.467.637c-2.388,0-2.745-2.19-2.745-3.668V23.434H5.414Zm25.36,3.67c3.024,0,4.278,2.415,4.278,8.254,0,5.7-1.434,8.451-4.433,8.451a4.918,4.918,0,0,1-1.692-.315V27.481a4.514,4.514,0,0,1,1.848-.377Z" transform="translate(0 0)"/>
  </g>
</svg>
